# xmcd CD database file
#
# Track frame offsets:
#	150
#	9879
#	20291
#	31712
#	40889
#	52146
#	63878
#	72900
#	83649
#	98010
#	109308
#	122038
#	132789
#	144262
#	153170
#	161365
#	173997
#	184758
#	200180
#	210022
#	219242
#	234334
#	248492
#	258225
#	276844
#	289034
#	299952
#
# Disc length: 4143 seconds
#
# Revision: 0
# Processed by: cddbd v1.5.2PL0 Copyright (c) Steve Scherf et al.
# Submitted via: CDex 1.76
#
DISCID=72102d1b
DTITLE=Ivan Mladek - Jozin z bazin a dalsich 80 pisni - cd2
DYEAR=1900
DGENRE=Country
TTITLE0=Defile u more
TTITLE1=Zobali vraci zobali
TTITLE2=Ztratil jsem sako
TTITLE3=Zla baba
TTITLE4=Lulu z Honolulu
TTITLE5=Lizatko
TTITLE6=Sousedivic Tonicek
TTITLE7=Nekupuj cukr ja jsem tvuj cukr
TTITLE8=Medove try
TTITLE9=Dzinovy velorex
TTITLE10=Slusne vychovana
TTITLE11=Dve Rusky
TTITLE12=Nu nu nu
TTITLE13=Svadlenak Madlenka
TTITLE14=Znok\jmo vidim te dvojmo
TTITLE15=Pisen fotbaloveho soudce
TTITLE16=Punkva
TTITLE17=Kolecko po Vaclavskem namesti
TTITLE18=Davaj Havaj
TTITLE19=Kaucokova Lou
TTITLE20=Vlak je vlak
TTITLE21=Kousava deka
TTITLE22=Mistr Woo
TTITLE23=Vanoce v Dablicich
TTITLE24=V Embassy
TTITLE25=Pisen o jaru
TTITLE26=Aerobic
EXTD=
EXTT0=
EXTT1=
EXTT2=
EXTT3=
EXTT4=
EXTT5=
EXTT6=
EXTT7=
EXTT8=
EXTT9=
EXTT10=
EXTT11=
EXTT12=
EXTT13=
EXTT14=
EXTT15=
EXTT16=
EXTT17=
EXTT18=
EXTT19=
EXTT20=
EXTT21=
EXTT22=
EXTT23=
EXTT24=
EXTT25=
EXTT26=
PLAYORDER=
